nColumns=19
nRows=48
DataType=double
version=3
OpenSimVersion=4.1
endheader
time	ground_force_calcn_l_vx	ground_force_calcn_l_vy	ground_force_calcn_l_vz	ground_force_calcn_l_px	ground_force_calcn_l_py	ground_force_calcn_l_pz	ground_force_calcn_l_mx	ground_force_calcn_l_my	ground_force_calcn_l_mz	ground_force_calcn_r_vx	ground_force_calcn_r_vy	ground_force_calcn_r_vz	ground_force_calcn_r_px	ground_force_calcn_r_py	ground_force_calcn_r_pz	ground_force_calcn_r_mx	ground_force_calcn_r_my	ground_force_calcn_r_mz
0.002	0	0	0	0	0.100151	0	0	0	0	0	0	0	0	0.313723	0	0	0	0
0.00299874	-32.5175	-34.371	22.4091	0.47195	0	-0.446128	4.79085	5.06391	-3.30156	0	0	0	0	0	0	0	0	0
0.00399748	-34.0971	-15.1397	22.9907	1.22043	0	-1.01126	5.95991	2.64631	-4.0186	0	0	0	0	0	0	0	0	0
0.00499622	-35.6765	4.09164	23.5722	-5.36989	0	3.27479	5.26365	-0.603673	-3.4778	0	0	0	0	0	0	0	0	0
0.00599496	-37.2559	23.3232	24.1536	-1.12909	0	0.431402	3.16259	-1.97986	-2.05036	0	0	0	0	0	0	0	0	0
0.0069937	-38.835	42.5549	24.7348	-0.711939	0	0.169586	1.57607	-1.72704	-1.00383	0	0	0	0	0	0	0	0	0
0.00799244	-40.4137	61.7869	25.3157	-0.546054	0	0.0824078	0.731435	-1.11826	-0.45818	0	0	0	0	0	0	0	0	0
0.00899118	-41.992	81.0192	25.8961	-0.455272	0	0.0415289	0.306582	-0.591518	-0.189067	0	0	0	0	0	0	0	0	0
0.00998992	-43.5697	100.252	26.476	-0.39779	0	0.0181844	0.0890568	-0.204915	-0.0541172	0	0	0	0	0	0	0	0	0
0.0109887	-45.1466	119.484	27.0552	-0.358095	0	0.00304257	-0.0245213	0.0648978	0.014695	0	0	0	0	0	0	0	0	0
0.0119874	-46.7226	138.717	27.6335	-0.329021	0	-0.00766336	-0.083481	0.247851	0.0493738	0	0	0	0	0	0	0	0	0
0.0129861	-48.2973	157.949	28.2107	-0.306785	0	-0.0157083	-0.112327	0.36735	0.0656111	0	0	0	0	0	0	0	0	0
0.0139849	-49.8707	177.181	28.7867	-0.289207	0	-0.0220304	-0.123868	0.44008	0.0715001	0	0	0	0	0	0	0	0	0
0.0149836	-51.4425	196.411	29.3612	-0.27494	0	-0.0271706	-0.125127	0.477744	0.0714173	0	0	0	0	0	0	0	0	0
0.0159824	-53.0123	215.64	29.9341	-0.263108	0	-0.0314631	-0.12012	0.488616	0.0678272	0	0	0	0	0	0	0	0	0
0.0169811	-54.5801	234.867	30.5051	-0.25312	0	-0.0351252	-0.111228	0.478632	0.0621659	0	0	0	0	0	0	0	0	0
0.0179798	-56.1455	254.09	31.0739	-0.244561	0	-0.0383049	-0.099905	0.452127	0.0552928	0	0	0	0	0	0	0	0	0
0.0189786	-57.7082	273.309	31.6405	-0.237129	0	-0.0411065	-0.08706	0.412321	0.0477336	0	0	0	0	0	0	0	0	0
0.0199773	-59.2679	292.523	32.2044	-0.230604	0	-0.0436053	-0.0732731	0.361648	0.0398144	0	0	0	0	0	0	0	0	0
0.0209761	-60.8244	311.731	32.7656	-0.22482	0	-0.0458576	-0.0589198	0.30197	0.0317396	0	0	0	0	0	0	0	0	0
0.0219748	-62.3773	330.931	33.3237	-0.219646	0	-0.0479061	-0.0442456	0.234737	0.0236372	0	0	0	0	0	0	0	0	0
0.0229736	-63.9264	350.122	33.8786	-0.214983	0	-0.0497836	-0.029412	0.161088	0.0155873	0	0	0	0	0	0	0	0	0
0.0239723	-65.4712	369.301	34.43	-0.210751	0	-0.051516	-0.0145252	0.081932	0.00763852	0	0	0	0	0	0	0	0	0
0.024971	-67.0116	388.469	34.9777	-0.206887	0	-0.053124	0.000345389	-0.00200223	-0.000180281	0	0	0	0	0	0	0	0	0
0.0259698	-68.5471	407.621	35.5214	-0.203339	0	-0.054624	0.0151553	-0.0901221	-0.00785354	0	0	0	0	0	0	0	0	0
0.0269685	-70.0774	426.757	36.0611	-0.200064	0	-0.0560296	0.0298766	-0.181942	-0.0153742	0	0	0	0	0	0	0	0	0
0.0279673	-71.6023	445.874	36.5965	-0.197027	0	-0.0573519	0.044493	-0.277062	-0.0227408	0	0	0	0	0	0	0	0	0
0.028966	-73.1212	464.969	37.1275	-0.1942	0	-0.0586	0.0589958	-0.375147	-0.0299552	0	0	0	0	0	0	0	0	0
0.0299647	-74.634	484.04	37.6538	-0.191558	0	-0.0597816	0.0733815	-0.475917	-0.0370219	0	0	0	0	0	0	0	0	0
0.0309635	-76.1403	503.085	38.1753	-0.18908	0	-0.0609033	0.0876502	-0.579135	-0.0439462	0	0	0	0	0	0	0	0	0
0.0319622	-77.6396	522.1	38.692	-0.186748	0	-0.0619703	0.101804	-0.684597	-0.0507344	0	0	0	0	0	0	0	0	0
0.032961	-79.1317	541.083	39.2037	-0.184548	0	-0.0629876	0.115846	-0.79213	-0.0573931	0	0	0	0	0	0	0	0	0
0.0339597	-80.6161	560.03	39.7103	-0.182466	0	-0.0639589	0.129782	-0.90158	-0.0639288	0	0	0	0	0	0	0	0	0
0.0349584	-82.0926	578.939	40.2118	-0.180492	0	-0.0648878	0.143616	-1.01282	-0.0703479	0	0	0	0	0	0	0	0	0
0.0359572	-83.5606	597.805	40.7082	-0.178615	0	-0.0657772	0.157351	-1.12571	-0.0766567	0	0	0	0	0	0	0	0	0
0.0369559	-85.0199	616.626	41.1994	-0.176827	0	-0.0666298	0.170994	-1.24017	-0.0828611	0	0	0	0	0	0	0	0	0
0.0379547	-86.47	635.398	41.6854	-0.17512	0	-0.0674478	0.184547	-1.35609	-0.0889664	0	0	0	0	0	0	0	0	0
0.0389534	-87.9106	654.117	42.1663	-0.173489	0	-0.0682333	0.198015	-1.47337	-0.094978	0	0	0	0	0	0	0	0	0
0.0399521	-89.3411	672.78	42.6422	-0.171928	0	-0.0689879	0.2114	-1.59194	-0.1009	0	0	0	0	0	0	0	0	0
0.0409509	-90.7612	691.382	43.1131	-0.17043	0	-0.0697132	0.224705	-1.71171	-0.106738	0	0	0	0	0	0	0	0	0
0.0419496	-92.1705	709.92	43.5792	-0.168993	0	-0.0704107	0.23793	-1.8326	-0.112496	0	0	0	0	0	0	0	0	0
0.0429484	-93.5683	728.389	44.0406	-0.167611	0	-0.0710816	0.251078	-1.95453	-0.118177	0	0	0	0	0	0	0	0	0
0.0439471	-94.9544	746.786	44.4974	-0.166282	0	-0.071727	0.264148	-2.07744	-0.123785	0	0	0	0	0	0	0	0	0
0.0449458	-96.3282	765.107	44.95	-0.165001	0	-0.0723479	0.277139	-2.20123	-0.129322	0	0	0	0	0	0	0	0	0
0.0459446	-97.6891	783.348	45.3985	-0.163768	0	-0.0729452	0.29005	-2.32584	-0.134793	0	0	0	0	0	0	0	0	0
0.0469433	-99.0367	801.503	45.8432	-0.162577	0	-0.0735199	0.302879	-2.45119	-0.1402	0	0	0	0	0	0	0	0	0
0.0479421	-100.37	819.57	46.2843	-0.161428	0	-0.0740726	0.315623	-2.5772	-0.145545	0	0	0	0	0	0	0	0	0
0.0489408	-101.69	837.544	46.7222	-0.160319	0	-0.0746041	0.328279	-2.70379	-0.150831	0	0	0	0	0	0	0	0	0
